[img]http://img209.imageshack.us/img209/9571/johncartermovieposter.jpg[/img]

Transplanted to Mars, a Civil War vet discovers a lush planet inhabited by 12-foot tall barbarians. Finding himself a prisoner of these creatures, he escapes, only to encounter a princess who is in desperate need of a savior.

Taylor Kitsch	 ...	John Carter
Lynn Collins	 ...	Dejah Thoris
Samantha Morton	 ...	Sola
Willem Dafoe	 ...	Tars Tarkas
Thomas Haden Church	 ...	Tal Hajus

Complete name: John.Carter.2012.BRRip.Xvid.Ac3.ANALOGJ.C.BRR.ANALOG.avi
Format: AVI
Format/Info: Audio Video Interleave
File size: 1.91 GiB
Duration: 2h 12mn
Overall bit rate: 2 070 Kbps

Video
ID: 0
Format: MPEG-4 Visual
Format profile: Advanced Simple@L5
Format settings, BVOP: 2
Format settings, QPel: No
Format settings, GMC: No warppoints
Format settings, Matrix: Default (MPEG)
Muxing mode: Packed bitstream
Codec ID: XVID
Codec ID/Hint: XviD
Duration: 2h 12mn
Bit rate: 1 678 Kbps
Width: 720 pixels
Height: 304 pixels
Display aspect ratio: 2.35:1
Frame rate: 23.976 fps
Color space: YUV
Chroma subsampling: 4:2:0
Bit depth: 8 bits
Scan type: Progressive
Compression mode: Lossy
Bits/(Pixel*Frame): 0.320
Stream size: 1.55 GiB (81%)
Writing library: XviD 1.2.1 (UTC 2008-12-04)

Audio
ID: 1
Format: AC-3
Format/Info: Audio Coding 3
Mode extension: CM (complete main)
Format settings, Endianness: Big
Codec ID: 2000
Duration: 2h 12mn
Bit rate mode: Constant
Bit rate: 384 Kbps
Channel(s): 6 channels
Channel positions: Front: L C R, Side: L R, LFE
Sampling rate: 48.0 KHz
Bit depth: 16 bits
Compression mode: Lossy
Stream size: 363 MiB (19%)
Alignment: Aligned on interleaves
Interleave, duration: 64 ms (1.53 video frames)
Interleave, preload duration: 192 ms
Title: john.track_2_English_ANALOG
Subs: Hardcoded english where needed
Sample: Yes
Source: 720p SPARKS THX

GREETS:
Rx / REFiLL / BHRG / 26K /DTRG / Xtreme Encode / INSPiRAL / KoDeKinG /LEGiTiMATE / LEGi0N / HDC / PRESTIGE / HOPE
AND ALL THE OUTHER PLACES I LURK AROUND AT!! 

[img]http://img715.imageshack.us/img715/3320/17860490.png[/img]
[img]http://img821.imageshack.us/img821/8853/67258978.png[/img]
[img]http://img826.imageshack.us/img826/2863/24546772.png[/img]
[img]http://img221.imageshack.us/img221/1750/43909336.png[/img]
[img]http://img402.imageshack.us/img402/7777/55637136.png[/img]